<svg width="81" height="81" viewBox="0 0 81 81" fill="none" xmlns="http://www.w3.org/2000/svg">
<path d="M77.2031 74.6719H59.168L62.0947 74.2131C66.1289 73.5803 68.8975 69.7834 68.2488 65.7334C67.6793 62.1264 64.5785 59.4844 60.924 59.4844C60.8766 59.4844 60.8449 59.4844 60.7975 59.4844L51.3053 60.4178C50.625 58.7092 49.3594 55.2445 49.3594 52.5234C49.3594 49.5967 50.8307 45.7682 51.4793 44.2336C53.9631 43.9172 56.0355 42.1928 56.8266 39.8197L61.4461 25.9453C61.9207 24.5373 61.4461 22.9869 60.2596 22.0852L46.6225 10.6154L44.202 4.58789C44.0121 4.11328 43.5375 3.79688 43.0312 3.79688H37.9688C37.4467 3.79688 36.9879 4.11328 36.798 4.58789L34.3775 10.6154L20.7404 22.0852C19.5697 22.9869 19.0951 24.5373 19.5539 25.9453L24.1734 39.8197C24.9645 42.1928 27.0369 43.9014 29.5207 44.2336C30.1693 45.7523 31.6406 49.5809 31.6406 52.5234C31.6406 55.2445 30.375 58.7092 29.6789 60.4336L20.1867 59.5002C20.1393 59.5002 20.1076 59.5002 20.0602 59.5002C15.9785 59.4844 12.6562 62.8066 12.6562 66.8883C12.6562 70.527 15.3141 73.6436 18.9053 74.2131L21.832 74.6719H3.79688C3.10078 74.6719 2.53125 75.2414 2.53125 75.9375C2.53125 76.6336 3.10078 77.2031 3.79688 77.2031H77.2031C77.8992 77.2031 78.4688 76.6336 78.4688 75.9375C78.4688 75.2414 77.8992 74.6719 77.2031 74.6719ZM31.6406 42.7623V36.7031H34.2984C34.9945 40.1203 38.3484 42.3352 41.7656 41.6391C44.2494 41.1328 46.1953 39.1869 46.7016 36.7031H49.3594V42.7623C48.774 44.0912 48.2678 45.4518 47.8406 46.8281H33.1594C32.7322 45.4359 32.226 44.0912 31.6406 42.7623ZM50.1346 34.1719H46.8281C47.6508 33.0803 48.0938 31.7514 48.0938 30.375V26.5781C48.0938 24.3 47.0496 22.3066 45.4676 21.1834C45.5625 20.6771 45.5783 20.1709 45.515 19.6646L52.9348 25.7396L50.1346 34.1719ZM37.9688 20.25C37.9688 18.8578 39.1078 17.7188 40.5 17.7188C41.8922 17.7188 43.0312 18.8578 43.0312 20.25V20.2658C42.8889 20.25 42.7465 20.25 42.6041 20.25H38.3801C38.2377 20.25 38.0953 20.2658 37.9529 20.2658C37.9688 20.2658 37.9688 20.25 37.9688 20.25ZM38.3959 22.7812H42.6199C44.2494 22.7812 45.5783 24.4898 45.5783 26.5781V27.2426L40.9904 25.4074C40.6898 25.2809 40.3576 25.2809 40.057 25.4074L35.4691 27.2426V26.5781C35.4375 24.4898 36.7664 22.7812 38.3959 22.7812ZM40.5 27.9387L45.5625 29.9637V30.375C45.5625 32.4633 43.8539 34.1719 41.7656 34.1719H39.2344C37.1461 34.1719 35.4375 32.4633 35.4375 30.375V29.9637L40.5 27.9387ZM39.2344 36.7031H41.7656C42.6041 36.7031 43.4426 36.5291 44.2178 36.2127C43.7906 38.2693 41.7814 39.5824 39.7248 39.1553C38.2377 38.8547 37.0828 37.684 36.7822 36.2127C37.5574 36.5291 38.3959 36.7031 39.2344 36.7031ZM35.5324 21.1834C33.9662 22.2908 32.9062 24.3 32.9062 26.5781V30.375C32.9062 31.7514 33.3492 33.0803 34.1719 34.1719H30.8654L28.0494 25.7396L35.4691 19.6646C35.4059 20.1709 35.4375 20.693 35.5324 21.1834ZM44.3918 11.8652C44.4709 12.0551 44.5975 12.2291 44.7557 12.3715L58.6617 24.0627C58.6775 24.0785 58.6934 24.0943 58.7092 24.1102C59.0414 24.3475 59.168 24.7746 59.0414 25.1701L54.4219 39.0287C54.0264 40.2311 53.093 41.1645 51.8906 41.56V36.9088L55.3395 26.5465C55.6717 25.5498 55.3553 24.4582 54.5484 23.7937L41.7656 13.3207V6.32812H42.177L44.3918 11.8652ZM29.1094 41.56C27.907 41.1645 26.9736 40.2311 26.5781 39.0287L21.9586 25.1543C21.832 24.7588 21.9586 24.3316 22.2908 24.0943C22.3066 24.0785 22.3225 24.0627 22.3383 24.0469L36.2443 12.3557C36.4025 12.2291 36.5291 12.0551 36.6082 11.8494L38.823 6.3123H39.2344V13.3049L26.4516 23.7621C25.6447 24.4266 25.3283 25.5182 25.6605 26.5148L29.1094 36.8771V41.56ZM34.1719 52.5234C34.1561 51.4635 34.0295 50.4035 33.808 49.3594H47.192C46.9705 50.4035 46.8439 51.4635 46.8281 52.5234C46.8281 55.3395 47.9197 58.6617 48.6949 60.6867L48.0305 60.75H32.9695L32.3051 60.6867C33.0803 58.6617 34.1719 55.3395 34.1719 52.5234ZM15.1875 66.8883C15.1875 64.2146 17.3391 62.0473 20.0127 62.0156L32.7955 63.2812H32.9221H48.1096H48.2361L61.0189 62.0156C63.7084 62.0473 65.8758 64.2621 65.8441 66.9516C65.8125 69.3246 64.0723 71.3338 61.7309 71.7135L52.824 73.1215L51.7008 71.4445C51.5268 71.1914 51.2895 71.0174 50.9889 70.9225L47.983 70.0682L54.9439 66.9674C55.5768 66.6826 55.8773 65.9391 55.5926 65.2904C55.3078 64.6418 54.5643 64.357 53.9156 64.6418L44.1703 68.9766L42.1137 68.3912C41.8764 68.3279 41.6074 68.3279 41.3701 68.407L38.032 69.5145L27.0844 64.6576C26.4516 64.3729 25.6922 64.6576 25.4074 65.3062C25.1227 65.9549 25.4074 66.6984 26.0561 66.9832L36.6873 71.7135V74.4662L19.285 71.7135C16.9277 71.3496 15.1717 69.293 15.1875 66.8883ZM39.2344 74.6719V71.7926L41.7973 70.9383L49.834 73.2322L50.799 74.6719H39.2344Z" fill="url(#paint0_linear_27_807)"/>
<defs>
<linearGradient id="paint0_linear_27_807" x1="40.5" y1="77.2031" x2="40.5" y2="3.79688" gradientUnits="userSpaceOnUse">
<stop stop-color="#02939A"/>
<stop offset="0.5" stop-color="#E0C5BE"/>
<stop offset="1" stop-color="#C49A82"/>
</linearGradient>
</defs>
</svg>
