<svg width="81" height="81" viewBox="0 0 81 81" fill="none" xmlns="http://www.w3.org/2000/svg">
<path d="M78.2599 37.3992C78.3752 37.2244 78.4453 37.0237 78.4639 36.8151C78.4826 36.6065 78.4491 36.3965 78.3667 36.204L75.1161 28.6196C74.6689 27.5765 73.9495 26.6727 73.0333 26.0029L42.7403 3.86618C42.0908 3.38918 41.306 3.13196 40.5001 3.13196C39.6943 3.13196 38.9095 3.38918 38.26 3.86618L7.96674 26.0035C7.05065 26.6734 6.33138 27.5771 5.88416 28.6201L2.63356 36.2046C2.55106 36.3972 2.51764 36.6071 2.53627 36.8157C2.5549 37.0244 2.62502 37.2251 2.74033 37.3999C2.85563 37.5748 3.01253 37.7183 3.19695 37.8175C3.38137 37.9168 3.58754 37.9688 3.79698 37.9688H7.59386V59.4844C7.59386 59.8201 7.7272 60.142 7.96455 60.3793C8.2019 60.6167 8.52382 60.75 8.85948 60.75H15.1876V77.2031C15.1876 77.5388 15.321 77.8607 15.5583 78.0981C15.7957 78.3354 16.1176 78.4688 16.4532 78.4688H21.5157C21.8514 78.4688 22.1733 78.3354 22.4107 78.0981C22.648 77.8607 22.7814 77.5388 22.7814 77.2031V60.75H34.172V77.2031C34.172 77.5388 34.3053 77.8607 34.5427 78.0981C34.78 78.3354 35.1019 78.4688 35.4376 78.4688C35.7733 78.4688 36.0952 78.3354 36.3325 78.0981C36.5699 77.8607 36.7032 77.5388 36.7032 77.2031V75.9375H44.297V77.2031C44.297 77.5388 44.4303 77.8607 44.6677 78.0981C44.905 78.3354 45.2269 78.4688 45.5626 78.4688C45.8983 78.4688 46.2202 78.3354 46.4575 78.0981C46.6949 77.8607 46.8282 77.5388 46.8282 77.2031V60.75H58.2189V77.2031C58.2189 77.5388 58.3522 77.8607 58.5896 78.0981C58.8269 78.3354 59.1488 78.4688 59.4845 78.4688H64.547C64.8827 78.4688 65.2046 78.3354 65.4419 78.0981C65.6793 77.8607 65.8126 77.5388 65.8126 77.2031V60.75H72.1407C72.4764 60.75 72.7983 60.6167 73.0357 60.3793C73.273 60.142 73.4064 59.8201 73.4064 59.4844V37.9688H77.2032C77.4127 37.9687 77.6189 37.9166 77.8034 37.8172C77.9878 37.7178 78.1446 37.5742 78.2599 37.3992ZM20.2501 75.9375H17.7189V60.75H20.2501V75.9375ZM48.0939 58.2188H32.9064V45.5625H48.0939V58.2188ZM36.7032 65.8125H44.297V68.3438H36.7032V65.8125ZM36.7032 73.4063V70.875H44.297V73.4063H36.7032ZM44.297 63.2813H36.7032V60.75H44.297V63.2813ZM63.2814 75.9375H60.7501V60.75H63.2814V75.9375ZM70.8751 58.2188H50.6251V44.2969C50.6251 43.9612 50.4918 43.6393 50.2544 43.402C50.0171 43.1646 49.6952 43.0313 49.3595 43.0313H31.6407C31.3051 43.0313 30.9832 43.1646 30.7458 43.402C30.5084 43.6393 30.3751 43.9612 30.3751 44.2969V58.2188H10.1251V37.9688H70.8751V58.2188ZM69.6095 35.4375V31.6406C69.6095 31.305 69.4761 30.9831 69.2388 30.7457C69.0014 30.5084 68.6795 30.375 68.3439 30.375C68.0082 30.375 67.6863 30.5084 67.4489 30.7457C67.2116 30.9831 67.0782 31.305 67.0782 31.6406V35.4375H62.0157V31.6406C62.0157 31.305 61.8824 30.9831 61.645 30.7457C61.4077 30.5084 61.0858 30.375 60.7501 30.375C60.4144 30.375 60.0925 30.5084 59.8552 30.7457C59.6178 30.9831 59.4845 31.305 59.4845 31.6406V35.4375H54.422V31.6406C54.422 31.305 54.2886 30.9831 54.0513 30.7457C53.8139 30.5084 53.492 30.375 53.1564 30.375C52.8207 30.375 52.4988 30.5084 52.2614 30.7457C52.0241 30.9831 51.8907 31.305 51.8907 31.6406V35.4375H46.8282V31.6406C46.8282 31.305 46.6949 30.9831 46.4575 30.7457C46.2202 30.5084 45.8983 30.375 45.5626 30.375C45.2269 30.375 44.905 30.5084 44.6677 30.7457C44.4303 30.9831 44.297 31.305 44.297 31.6406V35.4375H36.7032V31.6406C36.7032 31.305 36.5699 30.9831 36.3325 30.7457C36.0952 30.5084 35.7733 30.375 35.4376 30.375C35.1019 30.375 34.78 30.5084 34.5427 30.7457C34.3053 30.9831 34.172 31.305 34.172 31.6406V35.4375H29.1095V31.6406C29.1095 31.305 28.9761 30.9831 28.7388 30.7457C28.5014 30.5084 28.1795 30.375 27.8439 30.375C27.5082 30.375 27.1863 30.5084 26.9489 30.7457C26.7116 30.9831 26.5782 31.305 26.5782 31.6406V35.4375H21.5157V31.6406C21.5157 31.305 21.3824 30.9831 21.145 30.7457C20.9077 30.5084 20.5858 30.375 20.2501 30.375C19.9144 30.375 19.5925 30.5084 19.3552 30.7457C19.1178 30.9831 18.9845 31.305 18.9845 31.6406V35.4375H13.922V31.6406C13.922 31.305 13.7886 30.9831 13.5513 30.7457C13.3139 30.5084 12.992 30.375 12.6564 30.375C12.3207 30.375 11.9988 30.5084 11.7614 30.7457C11.5241 30.9831 11.3907 31.305 11.3907 31.6406V35.4375H5.71646L8.21085 29.6171C8.47923 28.9912 8.91089 28.449 9.46066 28.0472L39.7532 5.91017C39.9698 5.75114 40.2314 5.66538 40.5001 5.66538C40.7688 5.66538 41.0304 5.75114 41.247 5.91017L71.5396 28.0472C72.0894 28.449 72.521 28.9912 72.7894 29.6171L75.2838 35.4375H69.6095ZM24.047 43.0313H13.922C13.5863 43.0313 13.2644 43.1646 13.0271 43.402C12.7897 43.6393 12.6564 43.9612 12.6564 44.2969V51.8906C12.6564 52.2263 12.7897 52.5482 13.0271 52.7856C13.2644 53.0229 13.5863 53.1563 13.922 53.1563H24.047C24.3826 53.1563 24.7046 53.0229 24.9419 52.7856C25.1793 52.5482 25.3126 52.2263 25.3126 51.8906V44.2969C25.3126 43.9612 25.1793 43.6393 24.9419 43.402C24.7046 43.1646 24.3826 43.0313 24.047 43.0313ZM22.7814 50.625H15.1876V45.5625H22.7814V50.625ZM67.0782 43.0313H56.9532C56.6176 43.0313 56.2957 43.1646 56.0583 43.402C55.821 43.6393 55.6876 43.9612 55.6876 44.2969V51.8906C55.6876 52.2263 55.821 52.5482 56.0583 52.7856C56.2957 53.0229 56.6176 53.1563 56.9532 53.1563H67.0782C67.4139 53.1563 67.7358 53.0229 67.9732 52.7856C68.2105 52.5482 68.3439 52.2263 68.3439 51.8906V44.2969C68.3439 43.9612 68.2105 43.6393 67.9732 43.402C67.7358 43.1646 67.4139 43.0313 67.0782 43.0313ZM65.8126 50.625H58.2189V45.5625H65.8126V50.625Z" fill="url(#paint0_linear_27_803)"/>
<defs>
<linearGradient id="paint0_linear_27_803" x1="40.5001" y1="78.4688" x2="40.5001" y2="3.13212" gradientUnits="userSpaceOnUse">
<stop stop-color="#02939A"/>
<stop offset="0.5" stop-color="#E0C5BE"/>
<stop offset="1" stop-color="#C49A82"/>
</linearGradient>
</defs>
</svg>
