<svg width="81" height="81" viewBox="0 0 81 81" fill="none" xmlns="http://www.w3.org/2000/svg">
<path d="M74.6719 27.8438H69.6094V18.9844C69.6082 17.9777 69.2078 17.0127 68.496 16.3009C67.7842 15.5891 66.8191 15.1887 65.8125 15.1875H43.0312C42.0966 15.1869 41.1949 15.5324 40.5 16.1574C39.8051 15.5324 38.9034 15.1869 37.9688 15.1875H15.1875C14.1809 15.1887 13.2158 15.5891 12.504 16.3009C11.7922 17.0127 11.3918 17.9777 11.3906 18.9844V27.8438H6.32812C5.32149 27.8449 4.35642 28.2453 3.64462 28.9571C2.93283 29.6689 2.53242 30.634 2.53125 31.6406V51.8906C2.53226 52.6755 2.77609 53.4408 3.22927 54.0816C3.68246 54.7224 4.32282 55.2073 5.0625 55.4698V64.5469C5.0625 64.8825 5.19584 65.2045 5.43319 65.4418C5.67054 65.6792 5.99246 65.8125 6.32812 65.8125H11.3906C11.6257 65.8125 11.856 65.747 12.056 65.6235C12.2559 65.4999 12.4175 65.3231 12.5226 65.1129L14.704 60.75H66.296L68.4774 65.1129C68.5826 65.3231 68.7441 65.4999 68.944 65.6235C69.144 65.747 69.3744 65.8125 69.6094 65.8125H74.6719C75.0075 65.8125 75.3295 65.6792 75.5668 65.4418C75.8042 65.2045 75.9375 64.8825 75.9375 64.5469V55.4698C76.6772 55.2073 77.3175 54.7224 77.7707 54.0816C78.2239 53.4408 78.4677 52.6755 78.4688 51.8906V31.6406C78.4676 30.634 78.0672 29.6689 77.3554 28.9571C76.6436 28.2453 75.6785 27.8449 74.6719 27.8438ZM73.4062 55.6875V58.2188H7.59375V55.6875H73.4062ZM15.1875 53.1562V48.0938H65.8125V53.1562H15.1875ZM65.8125 45.5625H15.1875V39.2344C15.1879 38.8988 15.3213 38.5771 15.5586 38.3399C15.7959 38.1026 16.1176 37.9691 16.4531 37.9688H64.5469C64.8824 37.9691 65.2041 38.1026 65.4414 38.3399C65.6787 38.5771 65.8121 38.8988 65.8125 39.2344V45.5625ZM43.0312 17.7188H65.8125C66.148 17.7191 66.4697 17.8526 66.707 18.0899C66.9443 18.3271 67.0778 18.6488 67.0781 18.9844V28.8137C66.6799 29.1691 66.3613 29.6047 66.1432 30.0919C65.925 30.5791 65.8124 31.1068 65.8125 31.6406V35.6552C65.4061 35.511 64.9781 35.4373 64.5469 35.4375H43.0312C42.6957 35.4371 42.374 35.3037 42.1367 35.0664C41.8995 34.8291 41.766 34.5074 41.7656 34.1719V18.9844C41.766 18.6488 41.8995 18.3271 42.1367 18.0899C42.374 17.8526 42.6957 17.7191 43.0312 17.7188ZM13.9219 18.9844C13.9223 18.6488 14.0557 18.3271 14.293 18.0899C14.5303 17.8526 14.852 17.7191 15.1875 17.7188H37.9688C38.3043 17.7191 38.626 17.8526 38.8633 18.0899C39.1005 18.3271 39.234 18.6488 39.2344 18.9844V34.1719C39.234 34.5074 39.1005 34.8291 38.8633 35.0664C38.626 35.3037 38.3043 35.4371 37.9688 35.4375H16.4531C16.0219 35.4373 15.5939 35.511 15.1875 35.6552V31.6406C15.1876 31.1068 15.0749 30.5791 14.8568 30.0919C14.6387 29.6047 14.3201 29.1691 13.9219 28.8137V18.9844ZM5.0625 31.6406C5.06288 31.3051 5.19634 30.9834 5.43361 30.7461C5.67088 30.5088 5.99258 30.3754 6.32812 30.375H11.3906C11.7262 30.3754 12.0479 30.5088 12.2851 30.7461C12.5224 30.9834 12.6559 31.3051 12.6562 31.6406V53.1562H6.32812C5.99258 53.1559 5.67088 53.0224 5.43361 52.7851C5.19634 52.5479 5.06288 52.2262 5.0625 51.8906V31.6406ZM10.6085 63.2812H7.59375V60.75H11.8741L10.6085 63.2812ZM70.3915 63.2812L69.1259 60.75H73.4062V63.2812H70.3915ZM75.9375 51.8906C75.9371 52.2262 75.8037 52.5479 75.5664 52.7851C75.3291 53.0224 75.0074 53.1559 74.6719 53.1562H68.3438V31.6406C68.3441 31.3051 68.4776 30.9834 68.7149 30.7461C68.9521 30.5088 69.2738 30.3754 69.6094 30.375H74.6719C75.0074 30.3754 75.3291 30.5088 75.5664 30.7461C75.8037 30.9834 75.9371 31.3051 75.9375 31.6406V51.8906ZM31.6406 21.5156C31.6406 21.18 31.774 20.858 32.0113 20.6207C32.2487 20.3833 32.5706 20.25 32.9062 20.25C33.9129 20.2511 34.878 20.6515 35.5898 21.3633C36.3016 22.0751 36.702 23.0402 36.7031 24.0469V29.1094C36.7031 29.445 36.5698 29.767 36.3324 30.0043C36.0951 30.2417 35.7732 30.375 35.4375 30.375C35.1018 30.375 34.7799 30.2417 34.5426 30.0043C34.3052 29.767 34.1719 29.445 34.1719 29.1094V24.0469C34.1715 23.7113 34.038 23.3896 33.8008 23.1524C33.5635 22.9151 33.2418 22.7816 32.9062 22.7813C32.5706 22.7813 32.2487 22.6479 32.0113 22.4106C31.774 22.1732 31.6406 21.8513 31.6406 21.5156ZM59.4844 21.5156C59.4844 21.18 59.6177 20.858 59.8551 20.6207C60.0924 20.3833 60.4143 20.25 60.75 20.25C61.7566 20.2511 62.7217 20.6515 63.4335 21.3633C64.1454 22.0751 64.5457 23.0402 64.5469 24.0469V29.1094C64.5469 29.445 64.4135 29.767 64.1762 30.0043C63.9388 30.2417 63.6169 30.375 63.2812 30.375C62.9456 30.375 62.6237 30.2417 62.3863 30.0043C62.149 29.767 62.0156 29.445 62.0156 29.1094V24.0469C62.0152 23.7113 61.8818 23.3896 61.6445 23.1524C61.4072 22.9151 61.0855 22.7816 60.75 22.7813C60.4143 22.7813 60.0924 22.6479 59.8551 22.4106C59.6177 22.1732 59.4844 21.8513 59.4844 21.5156Z" fill="url(#paint0_linear_403_997)"/>
<defs>
<linearGradient id="paint0_linear_403_997" x1="40.5" y1="65.8125" x2="40.5" y2="15.1875" gradientUnits="userSpaceOnUse">
<stop stop-color="#02939A"/>
<stop offset="0.5" stop-color="#E0C5BE"/>
<stop offset="1" stop-color="#C49A82"/>
</linearGradient>
</defs>
</svg>
