<svg width="81" height="81" viewBox="0 0 81 81" fill="none" xmlns="http://www.w3.org/2000/svg">
<path d="M62.9434 5.17087C63.1226 5.10719 63.314 5.08496 63.503 5.10584C63.6921 5.12672 63.874 5.19017 64.035 5.29142L71.4706 9.93832C71.7552 10.1162 72.0989 10.1738 72.426 10.0983C72.7531 10.0228 73.0368 9.82044 73.2147 9.53577C73.3926 9.25111 73.4501 8.90743 73.3746 8.58035C73.2991 8.25326 73.0968 7.96956 72.8121 7.79166L65.3766 3.14476C64.893 2.84256 64.3476 2.65316 63.7808 2.5906C63.2141 2.52805 62.6405 2.59396 62.1027 2.78343C61.5649 2.97291 61.0766 3.28108 60.6742 3.68508C60.2718 4.08908 59.9656 4.57852 59.7782 5.11708L53.6327 22.7812H37.9155C37.6715 19.8616 36.5882 17.0748 34.7962 14.7569C33.0042 12.4389 30.5799 10.6888 27.8158 9.7175C25.0516 8.74619 22.0655 8.59513 19.2174 9.28255C16.3693 9.96997 13.7809 11.4665 11.7641 13.5918C9.74732 15.717 8.38832 18.3803 7.85093 21.2604C7.31353 24.1406 7.62069 27.1147 8.73537 29.8242C9.85004 32.5338 11.7246 34.8631 14.1332 36.5313C16.5418 38.1995 19.3814 39.1355 22.3099 39.2263C23.206 41.2013 24.7953 42.7791 26.7767 43.6607L31.4013 45.7163C31.9295 45.949 32.3971 46.2998 32.7684 46.7417C33.1397 47.1836 33.4046 47.7047 33.5428 48.2651L34.0372 50.2426C34.4786 52.0163 35.4586 53.6096 36.8426 54.8034C38.2265 55.9973 39.9463 56.7331 41.7655 56.9096V75.9375H35.4374C35.1017 75.9375 34.7798 76.0708 34.5425 76.3082C34.3051 76.5455 34.1718 76.8675 34.1718 77.2031C34.1718 77.5388 34.3051 77.8607 34.5425 78.0981C34.7798 78.3354 35.1017 78.4688 35.4374 78.4688H50.6249C50.9606 78.4688 51.2825 78.3354 51.5198 78.0981C51.7572 77.8607 51.8905 77.5388 51.8905 77.2031C51.8905 76.8675 51.7572 76.5455 51.5198 76.3082C51.2825 76.0708 50.9606 75.9375 50.6249 75.9375H44.2968V56.9096C46.116 56.7331 47.8358 55.9973 49.2198 54.8034C50.6037 53.6095 51.5838 52.0161 52.0252 50.2425L52.5196 48.2649C52.6578 47.7046 52.9227 47.1834 53.2939 46.7415C53.6652 46.2997 54.1329 45.9489 54.661 45.7161L59.2856 43.6606C60.851 42.9638 62.181 41.8284 63.1147 40.3917C64.0484 38.955 64.5458 37.2785 64.5468 35.565V24.0469C64.5468 23.7112 64.4134 23.3893 64.1761 23.1519C63.9387 22.9146 63.6168 22.7812 63.2812 22.7812H56.3126L62.1685 5.94844C62.2306 5.76877 62.3326 5.60548 62.4668 5.47082C62.601 5.33616 62.7639 5.23362 62.9434 5.17087ZM24.0468 30.375V25.3125H52.7521L50.9908 30.375H24.0468ZM18.385 30.2326L21.5155 27.1023V31.5332C20.387 31.3425 19.3165 30.8977 18.385 30.2326ZM28.9669 19.6507C29.632 20.5822 30.0768 21.6527 30.2675 22.7812H25.8365L28.9669 19.6507ZM24.0468 20.9915V16.5605C25.1753 16.7512 26.2458 17.1959 27.1773 17.861L24.0468 20.9915ZM21.5155 20.9915L18.385 17.8611C19.3165 17.196 20.387 16.7513 21.5155 16.5605V20.9915ZM16.5954 19.6507L19.7258 22.7812H15.2948C15.4856 21.6527 15.9303 20.5822 16.5954 19.6507ZM19.7258 25.3125L16.5954 28.443C15.9303 27.5115 15.4856 26.4411 15.2948 25.3125H19.7258ZM10.1249 24.0469C10.1245 20.7996 11.3722 17.6765 13.61 15.3234C15.8478 12.9704 18.9044 11.5675 22.1476 11.4049C25.3907 11.2423 28.5723 12.3326 31.0342 14.45C33.496 16.5675 35.0498 19.5503 35.3741 22.7812H32.8242C32.5876 20.9017 31.8284 19.1262 30.6328 17.6567C29.4373 16.1872 27.8534 15.0826 26.0612 14.4686C24.2691 13.8545 22.3406 13.7557 20.4951 14.1832C18.6495 14.6108 16.961 15.5476 15.6215 16.8872C14.2819 18.2267 13.3451 19.9153 12.9175 21.7608C12.49 23.6063 12.5888 25.5348 13.2029 27.3269C13.8169 29.1191 14.9215 30.703 16.391 31.8985C17.8605 33.0941 19.636 33.8533 21.5155 34.0899V35.565C21.5159 35.926 21.5384 36.2866 21.5829 36.6447C18.4495 36.3432 15.5405 34.8861 13.4224 32.5573C11.3043 30.2286 10.1289 27.1948 10.1249 24.0469ZM58.2576 41.3477L53.633 43.4032C52.7528 43.7911 51.9734 44.3757 51.3546 45.1121C50.7359 45.8485 50.2943 46.717 50.0638 47.6508L49.5694 49.6283C49.2287 50.9981 48.4391 52.2144 47.3266 53.0832C46.214 53.952 44.8427 54.4233 43.4311 54.4219H42.6328C41.2212 54.4233 39.8499 53.952 38.7373 53.0832C37.6248 52.2144 36.8352 50.9981 36.4945 49.6283L36.0001 47.6508C35.7697 46.7169 35.3281 45.8484 34.7093 45.1119C34.0906 44.3755 33.3111 43.7908 32.4309 43.4029L27.8063 41.3473C26.6879 40.8499 25.7376 40.039 25.0704 39.0128C24.4032 37.9866 24.0477 36.7891 24.0468 35.565V32.9063H51.8831H51.8905H51.8946H62.0155V35.565C62.0149 36.7889 61.6596 37.9864 60.9926 39.0127C60.3257 40.0389 59.3757 40.8499 58.2576 41.3477ZM62.0155 25.3125V30.375H53.6708L55.4321 25.3125H62.0155ZM48.0937 43.0313C48.0937 43.2816 48.0194 43.5263 47.8804 43.7344C47.7413 43.9425 47.5436 44.1047 47.3124 44.2005C47.0811 44.2963 46.8266 44.3214 46.5811 44.2726C46.3356 44.2237 46.1101 44.1032 45.9331 43.9262C45.7561 43.7492 45.6356 43.5237 45.5867 43.2782C45.5379 43.0327 45.563 42.7782 45.6588 42.5469C45.7545 42.3157 45.9168 42.118 46.1249 41.9789C46.333 41.8399 46.5777 41.7656 46.828 41.7656C47.1637 41.7656 47.4856 41.899 47.723 42.1363C47.9603 42.3737 48.0937 42.6956 48.0937 43.0313ZM40.4999 40.5C40.2496 40.5 40.0049 40.4258 39.7968 40.2867C39.5886 40.1476 39.4264 39.95 39.3306 39.7187C39.2348 39.4874 39.2098 39.233 39.2586 38.9875C39.3074 38.742 39.428 38.5164 39.605 38.3394C39.782 38.1624 40.0075 38.0419 40.253 37.9931C40.4985 37.9442 40.753 37.9693 40.9842 38.0651C41.2155 38.1609 41.4132 38.3231 41.5522 38.5312C41.6913 38.7394 41.7655 38.9841 41.7655 39.2344C41.7655 39.57 41.6322 39.892 41.3948 40.1293C41.1575 40.3667 40.8356 40.5 40.4999 40.5ZM43.0312 48.0938C43.0312 48.3441 42.9569 48.5888 42.8179 48.7969C42.6788 49.005 42.4811 49.1672 42.2499 49.263C42.0186 49.3588 41.7641 49.3839 41.5186 49.3351C41.2731 49.2862 41.0476 49.1657 40.8706 48.9887C40.6936 48.8117 40.5731 48.5862 40.5242 48.3407C40.4754 48.0952 40.5005 47.8407 40.5963 47.6094C40.692 47.3782 40.8543 47.1805 41.0624 47.0414C41.2705 46.9024 41.5152 46.8281 41.7655 46.8281C42.1012 46.8281 42.4231 46.9615 42.6605 47.1988C42.8978 47.4362 43.0312 47.7581 43.0312 48.0938Z" fill="url(#paint0_linear_27_805)"/>
<defs>
<linearGradient id="paint0_linear_27_805" x1="40.5001" y1="78.4688" x2="40.5001" y2="2.56574" gradientUnits="userSpaceOnUse">
<stop stop-color="#02939A"/>
<stop offset="0.5" stop-color="#E0C5BE"/>
<stop offset="1" stop-color="#C49A82"/>
</linearGradient>
</defs>
</svg>
