<svg width="84" height="85" viewBox="0 0 84 85" fill="none" xmlns="http://www.w3.org/2000/svg">
<path d="M74.9699 22.4392C73.001 23.8698 71.4143 25.7629 70.3499 27.9517C68.7749 30.5767 67.8824 31.8892 66.4912 31.8892C65.0999 31.8892 64.2074 30.6292 62.6324 27.9517C61.0574 25.2742 58.7999 21.3892 54.2324 21.3892C49.6649 21.3892 47.4599 25.1692 45.8324 27.9517C44.2049 30.7342 43.3649 31.8892 41.9999 31.8892C40.6349 31.8892 39.7162 30.6292 38.1412 27.9517C36.5662 25.2742 34.3087 21.3892 29.7412 21.3892C25.1737 21.3892 22.9687 25.1692 21.3412 27.9517C19.7137 30.7342 18.8999 31.8892 17.4824 31.8892C16.0649 31.8892 15.1987 30.6292 13.6499 27.9517C12.5856 25.7629 10.9989 23.8698 9.02994 22.4392C8.63724 22.2464 8.2026 22.1548 7.7655 22.1727C7.3284 22.1906 6.90271 22.3175 6.52713 22.5418C6.15155 22.7661 5.83798 23.0807 5.61492 23.4571C5.39187 23.8334 5.26641 24.2595 5.24994 24.6967C5.23033 25.1351 5.32097 25.5715 5.51357 25.9659C5.70618 26.3602 5.99459 26.7 6.35244 26.9542C7.52501 27.9456 8.46587 29.1821 9.10869 30.5767C10.7099 33.3592 12.9149 37.1392 17.4824 37.1392C22.0499 37.1392 24.2812 33.3592 25.8824 30.5767C27.4837 27.7942 28.3237 26.6392 29.7412 26.6392C31.1587 26.6392 32.0249 27.8992 33.5737 30.5767C35.1224 33.2542 37.4062 37.1392 41.9999 37.1392C46.5937 37.1392 48.7724 33.3592 50.3999 30.5767C52.0274 27.7942 52.8412 26.6392 54.2587 26.6392C55.6762 26.6392 56.5424 27.8992 58.1174 30.5767C59.6924 33.2542 61.9499 37.1392 66.5174 37.1392C71.0849 37.1392 73.2899 33.3592 74.9174 30.5767C75.5221 29.1946 76.4174 27.9591 77.5424 26.9542C77.9197 26.7122 78.2287 26.3778 78.4401 25.9826C78.6514 25.5874 78.7581 25.1447 78.7499 24.6967C78.7335 24.2595 78.608 23.8334 78.3849 23.4571C78.1619 23.0807 77.8483 22.7661 77.4727 22.5418C77.0972 22.3175 76.6715 22.1906 76.2344 22.1727C75.7973 22.1548 75.3626 22.2464 74.9699 22.4392Z" fill="white"/>
<path d="M74.9699 48.6892C73.001 50.1198 71.4143 52.0129 70.3499 54.2017C68.7749 56.8267 67.8824 58.1392 66.4912 58.1392C65.0999 58.1392 64.2074 56.8792 62.6324 54.2017C61.0574 51.5242 58.7999 47.6392 54.2324 47.6392C49.6649 47.6392 47.4599 51.4192 45.8324 54.2017C44.2049 56.9842 43.3649 58.1392 41.9999 58.1392C40.6349 58.1392 39.7162 56.8792 38.1412 54.2017C36.5662 51.5242 34.3087 47.6392 29.7412 47.6392C25.1737 47.6392 22.9687 51.4192 21.3412 54.2017C19.7137 56.9842 18.8999 58.1392 17.4824 58.1392C16.0649 58.1392 15.1987 56.8792 13.6499 54.2017C12.5856 52.0129 10.9989 50.1198 9.02994 48.6892C8.63724 48.4964 8.2026 48.4048 7.7655 48.4227C7.3284 48.4406 6.90271 48.5675 6.52713 48.7918C6.15155 49.0161 5.83798 49.3307 5.61492 49.7071C5.39187 50.0834 5.26641 50.5095 5.24994 50.9467C5.23033 51.3851 5.32097 51.8215 5.51357 52.2159C5.70618 52.6102 5.99459 52.95 6.35244 53.2042C7.52501 54.1956 8.46587 55.4321 9.10869 56.8267C10.7099 59.6092 12.9149 63.3892 17.4824 63.3892C22.0499 63.3892 24.2812 59.6092 25.8824 56.8267C27.4837 54.0442 28.3237 52.8892 29.7412 52.8892C31.1587 52.8892 32.0249 54.1492 33.5737 56.8267C35.1224 59.5042 37.4062 63.3892 41.9999 63.3892C46.5937 63.3892 48.7724 59.6092 50.3999 56.8267C52.0274 54.0442 52.8412 52.8892 54.2587 52.8892C55.6762 52.8892 56.5424 54.1492 58.1174 56.8267C59.6924 59.5042 61.9499 63.3892 66.5174 63.3892C71.0849 63.3892 73.2899 59.6092 74.9174 56.8267C75.5221 55.4446 76.4174 54.2091 77.5424 53.2042C77.9003 52.95 78.1887 52.6102 78.3813 52.2159C78.5739 51.8215 78.6645 51.3851 78.6449 50.9467C78.6213 50.5235 78.4955 50.1123 78.2784 49.7483C78.0612 49.3844 77.7591 49.0784 77.398 48.8565C77.0369 48.6347 76.6274 48.5036 76.2045 48.4744C75.7817 48.4453 75.3581 48.519 74.9699 48.6892Z" fill="white"/>
</svg>
