<svg width="84" height="84" viewBox="0 0 84 84" fill="none" xmlns="http://www.w3.org/2000/svg">
<path d="M74.9699 22.05C73.001 23.4806 71.4143 25.3738 70.3499 27.5625C68.7749 30.1875 67.8824 31.5 66.4912 31.5C65.0999 31.5 64.2074 30.24 62.6324 27.5625C61.0574 24.885 58.7999 21 54.2324 21C49.6649 21 47.4599 24.78 45.8324 27.5625C44.2049 30.345 43.3649 31.5 41.9999 31.5C40.6349 31.5 39.7162 30.24 38.1412 27.5625C36.5662 24.885 34.3087 21 29.7412 21C25.1737 21 22.9687 24.78 21.3412 27.5625C19.7137 30.345 18.8999 31.5 17.4824 31.5C16.0649 31.5 15.1987 30.24 13.6499 27.5625C12.5856 25.3738 10.9989 23.4806 9.02994 22.05C8.63724 21.8572 8.2026 21.7656 7.7655 21.7835C7.3284 21.8015 6.90271 21.9283 6.52713 22.1527C6.15155 22.377 5.83798 22.6916 5.61492 23.0679C5.39187 23.4442 5.26641 23.8703 5.24994 24.3075C5.23033 24.746 5.32097 25.1823 5.51357 25.5767C5.70618 25.9711 5.99459 26.3109 6.35244 26.565C7.52501 27.5564 8.46587 28.793 9.10869 30.1875C10.7099 32.97 12.9149 36.75 17.4824 36.75C22.0499 36.75 24.2812 32.97 25.8824 30.1875C27.4837 27.405 28.3237 26.25 29.7412 26.25C31.1587 26.25 32.0249 27.51 33.5737 30.1875C35.1224 32.865 37.4062 36.75 41.9999 36.75C46.5937 36.75 48.7724 32.97 50.3999 30.1875C52.0274 27.405 52.8412 26.25 54.2587 26.25C55.6762 26.25 56.5424 27.51 58.1174 30.1875C59.6924 32.865 61.9499 36.75 66.5174 36.75C71.0849 36.75 73.2899 32.97 74.9174 30.1875C75.5221 28.8055 76.4174 27.5699 77.5424 26.565C77.9197 26.3231 78.2287 25.9886 78.4401 25.5934C78.6514 25.1983 78.7581 24.7556 78.7499 24.3075C78.7335 23.8703 78.608 23.4442 78.3849 23.0679C78.1619 22.6916 77.8483 22.377 77.4727 22.1527C77.0972 21.9283 76.6715 21.8015 76.2344 21.7835C75.7973 21.7656 75.3626 21.8572 74.9699 22.05Z" fill="#444444"/>
<path d="M74.9699 48.3C73.001 49.7306 71.4143 51.6238 70.3499 53.8125C68.7749 56.4375 67.8824 57.75 66.4912 57.75C65.0999 57.75 64.2074 56.49 62.6324 53.8125C61.0574 51.135 58.7999 47.25 54.2324 47.25C49.6649 47.25 47.4599 51.03 45.8324 53.8125C44.2049 56.595 43.3649 57.75 41.9999 57.75C40.6349 57.75 39.7162 56.49 38.1412 53.8125C36.5662 51.135 34.3087 47.25 29.7412 47.25C25.1737 47.25 22.9687 51.03 21.3412 53.8125C19.7137 56.595 18.8999 57.75 17.4824 57.75C16.0649 57.75 15.1987 56.49 13.6499 53.8125C12.5856 51.6238 10.9989 49.7306 9.02994 48.3C8.63724 48.1072 8.2026 48.0156 7.7655 48.0335C7.3284 48.0515 6.90271 48.1783 6.52713 48.4027C6.15155 48.627 5.83798 48.9416 5.61492 49.3179C5.39187 49.6942 5.26641 50.1203 5.24994 50.5575C5.23033 50.996 5.32097 51.4323 5.51357 51.8267C5.70618 52.2211 5.99459 52.5609 6.35244 52.815C7.52501 53.8064 8.46587 55.043 9.10869 56.4375C10.7099 59.22 12.9149 63 17.4824 63C22.0499 63 24.2812 59.22 25.8824 56.4375C27.4837 53.655 28.3237 52.5 29.7412 52.5C31.1587 52.5 32.0249 53.76 33.5737 56.4375C35.1224 59.115 37.4062 63 41.9999 63C46.5937 63 48.7724 59.22 50.3999 56.4375C52.0274 53.655 52.8412 52.5 54.2587 52.5C55.6762 52.5 56.5424 53.76 58.1174 56.4375C59.6924 59.115 61.9499 63 66.5174 63C71.0849 63 73.2899 59.22 74.9174 56.4375C75.5221 55.0555 76.4174 53.8199 77.5424 52.815C77.9003 52.5609 78.1887 52.2211 78.3813 51.8267C78.5739 51.4323 78.6645 50.996 78.6449 50.5575C78.6213 50.1343 78.4955 49.7232 78.2784 49.3592C78.0612 48.9952 77.7591 48.6892 77.398 48.4674C77.0369 48.2455 76.6274 48.1144 76.2045 48.0853C75.7817 48.0561 75.3581 48.1298 74.9699 48.3Z" fill="#444444"/>
</svg>
