<svg width="21" height="212" viewBox="0 0 21 212" fill="none" xmlns="http://www.w3.org/2000/svg">
<path d="M13.2335 192.121C9.88749 187.896 7 184.249 7 176.653C7 169.056 9.88749 165.406 13.2335 161.184C16.8735 156.587 21 151.379 21 141.302C21 131.232 16.8735 126.027 13.2335 121.43C9.88749 117.211 6.99999 113.568 6.99999 105.975C6.99999 98.3821 9.88749 94.7357 13.2335 90.5134C16.8735 85.9201 21 80.7119 21 70.6384C21 60.5649 16.8735 55.3603 13.23 50.7669C9.88749 46.5481 6.99999 42.9053 6.99999 35.3157C6.99999 27.7261 9.88749 24.0832 13.2335 19.8644C16.8735 15.2711 21 10.07 21 0L14 8.34742e-08C14 7.58607 11.1125 11.2289 7.77 15.4477C4.1265 20.0411 -9.23569e-06 25.2457 -9.11561e-06 35.3157C-8.99552e-06 45.3857 4.1265 50.5903 7.7665 55.1871C11.1125 59.4024 14 63.0453 14 70.6384C14 78.2315 11.1125 81.8779 7.7665 86.1003C4.1265 90.6936 -8.39313e-06 95.9017 -8.273e-06 105.975C-8.15288e-06 116.049 4.1265 121.253 7.77 125.847C11.1125 130.066 14 133.708 14 141.302C14 148.898 11.1125 152.548 7.7665 156.77C4.1265 161.364 -7.55035e-06 166.575 -7.43018e-06 176.653C-7.31001e-06 186.73 4.1265 191.938 7.7665 196.535C11.1125 200.757 14 204.403 14 212L21 212C21 201.923 16.8735 196.715 13.2335 192.121Z" fill="#E2E2E2"/>
</svg>
