<svg width="21" height="212" viewBox="0 0 21 212" fill="none" xmlns="http://www.w3.org/2000/svg">
<path d="M7.7665 19.8785C11.1125 24.1044 14 27.7508 14 35.3475C14 42.9441 11.1125 46.5941 7.7665 50.8164C4.1265 55.4133 -6.61697e-06 60.6214 -6.17649e-06 70.6985C-5.73631e-06 80.7685 4.1265 85.9731 7.7665 90.5699C11.1125 94.7887 14 98.4316 14 106.025C14 113.618 11.1125 117.264 7.76651 121.487C4.1265 126.08 -3.52803e-06 131.288 -3.0877e-06 141.362C-2.64737e-06 151.435 4.1265 156.64 7.77001 161.233C11.1125 165.452 14 169.095 14 176.684C14 184.274 11.1125 187.917 7.76651 192.136C4.12651 196.729 -4.40174e-07 201.93 0 212L7 212C7 204.414 9.8875 200.771 13.23 196.552C16.8735 191.959 21 186.754 21 176.684C21 166.614 16.8735 161.41 13.2335 156.813C9.8875 152.598 7 148.955 7 141.362C7 133.768 9.8875 130.122 13.2335 125.9C16.8735 121.306 21 116.098 21 106.025C21 95.9512 16.8735 90.7466 13.23 86.1533C9.8875 81.9345 7 78.2916 7 70.6985C7 63.1018 9.88749 59.4519 13.2335 55.2295C16.8735 50.6362 21 45.4245 21 35.3475C21 25.2704 16.8735 20.0623 13.2335 15.4654C9.88749 11.2431 6.99999 7.59666 6.99999 -3.0598e-07L-9.26681e-06 0C-8.82633e-06 10.0771 4.1265 15.2852 7.7665 19.8785Z" fill="#E2E2E2"/>
</svg>
