<svg width="52" height="41" viewBox="0 0 52 41" fill="none" xmlns="http://www.w3.org/2000/svg">
<g clip-path="url(#clip0_27_794)">
<mask id="mask0_27_794" style="mask-type:luminance" maskUnits="userSpaceOnUse" x="0" y="0" width="52" height="41">
<path d="M52 0H0V41H52V0Z" fill="white"/>
</mask>
<g mask="url(#mask0_27_794)">
<path d="M46.5742 31.9122C44.9479 28.5469 42.9311 24.3565 38.6764 24.3565C34.4217 24.3565 32.3983 28.5469 30.7784 31.9122C29.1521 35.2841 27.942 37.4971 26.0033 37.4971C24.0646 37.4971 22.8545 35.2841 21.228 31.9122C19.6017 28.5469 17.5849 24.3565 13.3237 24.3565C9.06242 24.3565 7.04567 28.5469 5.42575 31.9122C3.79932 35.2841 2.58927 37.4971 0.650568 37.4971H0V41H0.650568C4.9053 41 6.92856 36.8096 8.55499 33.4443C10.1814 30.0724 11.3915 27.8594 13.3302 27.8594C15.2689 27.8594 16.4789 30.0724 18.1053 33.4443C19.7318 36.8096 21.7486 41 26.0097 41C30.271 41 32.2877 36.8096 33.9077 33.4443C35.5342 30.0724 36.7441 27.8594 38.6828 27.8594C40.6215 27.8594 41.8316 30.0724 43.4581 33.4443C45.0844 36.8096 47.1012 41 51.3559 41H52.0066V37.4971H51.3559C49.4238 37.4971 48.2071 35.2841 46.5808 31.9122H46.5742Z" fill="#98975E"/>
<path d="M46.3792 19.3411C44.7331 17.2263 42.6903 14.5942 38.6764 14.5942C34.6623 14.5942 32.6131 17.2263 30.9736 19.3411C29.4968 21.2399 28.3257 22.7457 26.0033 22.7457C23.6807 22.7457 22.5162 21.2464 21.0329 19.3411C19.3869 17.2263 17.3442 14.5942 13.3302 14.5942C9.31616 14.5942 7.26685 17.2263 5.62091 19.3411C4.14413 21.2399 2.9731 22.7457 0.650568 22.7457H0V26.2421H0.650568C4.66457 26.2421 6.71388 23.61 8.35982 21.4953C9.8366 19.5964 11.0076 18.0905 13.3302 18.0905C15.6527 18.0905 16.8172 19.5898 18.3005 21.4953C19.9465 23.61 21.9892 26.2421 26.0097 26.2421C30.0303 26.2421 32.073 23.61 33.719 21.4953C35.1959 19.5964 36.3668 18.0905 38.6894 18.0905C41.012 18.0905 42.1764 19.5898 43.6597 21.4953C45.3057 23.61 47.3484 26.2421 51.3625 26.2421H52.0129V22.7457H51.3625C49.0399 22.7457 47.8754 21.2464 46.3987 19.3411H46.3792Z" fill="#98975E"/>
<path d="M45.8781 8.6557C44.2062 7.68668 42.3065 6.58017 38.6764 6.58017C35.0463 6.58017 33.1464 7.68014 31.4681 8.6557C29.9197 9.55269 28.703 10.2598 25.9967 10.2598C23.2904 10.2598 22.0739 9.55269 20.5255 8.6557C18.8535 7.68668 16.9538 6.58017 13.3171 6.58017C9.68047 6.58017 7.78732 7.68014 6.10884 8.6557C4.5605 9.55269 3.34393 10.2598 0.637559 10.2598H0V13.7561H0.650568C4.28726 13.7561 6.26497 12.6038 7.85888 11.6806C9.40722 10.7836 10.6238 10.0765 13.3302 10.0765C16.0365 10.0765 17.2531 10.7836 18.8014 11.6806C20.3954 12.6038 22.3731 13.7561 26.0097 13.7561C29.6464 13.7561 31.5396 12.6562 33.2181 11.6806C34.76 10.7836 35.983 10.0765 38.6828 10.0765C41.3827 10.0765 42.6058 10.7836 44.1542 11.6806C45.8261 12.6496 47.7258 13.7561 51.3625 13.7561H52.0129V10.2598H51.3625C48.6625 10.2598 47.4395 9.55269 45.8911 8.6557H45.8781Z" fill="#98975E"/>
<path d="M52 0H0V3.49633H52V0Z" fill="#98975E"/>
</g>
</g>
<defs>
<clipPath id="clip0_27_794">
<rect width="52" height="41" fill="white"/>
</clipPath>
</defs>
</svg>
